#!OML:ASF I:\Actors\actors\Patient Classification 2\Patient 1\Session 1\actor1.ASF
:FULLY-SPECIFIED
:DEGREES
608
root -0.439801 18.7423 6.2759 14.1316 -0.78467 -5.65098
lowerback 9.23991 -0.559695 0.466398
upperback -1.26238 -0.593084 1.55583
thorax -6.50397 -0.277725 1.45574
lowerneck -4.49775 -6.8106 -5.80134
upperneck 11.0413 -9.92308 10.466
head 4.85846 -4.57515 3.57896
rclavicle -1.20265e-014 4.37326e-015
rhumerus -85.2028 13.6344 -95.7107
rradius 107.033
rwrist 2.11138
rhand 3.00669 -25.1229
rfingers 7.12502
rthumb 28.4669 -52.9771
lclavicle -1.20265e-014 4.37326e-015
lhumerus -84.1333 -21.112 108.641
lradius 104.831
lwrist 15.8968
lhand -14.9007 -26.2849
lfingers 7.12502
lthumb 11.2605 3.39287
rfemur -10.358 -1.77409 18.8922
rtibia 9.45501
rfoot -15.8141 -9.56128
rtoes -7.31704
lfemur -22.8349 3.09925 -8.92543
ltibia 30.519
lfoot -20.7902 6.81998
ltoes -57.1955
609
root -0.447908 18.7323 6.26668 14.051 -0.646855 -5.17735
lowerback 9.42007 -0.681532 1.01226
upperback -1.23099 -0.679013 1.71731
thorax -6.57659 -0.336578 1.33306
lowerneck -4.49768 -6.39118 -4.7478
upperneck 10.9301 -9.1144 7.94107
head 4.59148 -4.26873 2.69411
rclavicle -2.08724e-015 4.37326e-015
rhumerus -85.0166 13.4608 -95.5866
rradius 107.114
rwrist 2.21178
rhand 3.0854 -24.9939
rfingers 7.12502
rthumb 28.5422 -52.8355
lclavicle -2.08724e-015 4.37326e-015
lhumerus -84.1841 -21.2258 108.603
lradius 105.208
lwrist 15.0881
lhand -14.5349 -24.5133
lfingers 7.12502
lthumb 11.6133 5.14488
rfemur -10.0106 -2.06396 18.4925
rtibia 8.9595
rfoot -15.9268 -9.63549
rtoes -7.81882
lfemur -22.9331 3.16353 -9.40155
ltibia 30.6407
lfoot -20.6296 6.42341
ltoes -57.166
610
root -0.458717 18.7223 6.25525 13.9718 -0.465607 -4.66388
lowerback 9.68219 -0.832346 1.65289
upperback -1.23055 -0.785897 1.88917
thorax -6.73134 -0.40921 1.17411
lowerneck -4.36808 -5.86197 -3.60815
upperneck 10.698 -8.13803 5.03196
head 4.26929 -3.89827 1.69866
rclavicle 1.93815e-015 -5.36719e-015
rhumerus -84.8317 13.3795 -95.5008
rradius 107.136
rwrist 2.25824
rhand 3.14083 -24.7407
rfingers 7.12502
rthumb 28.5951 -52.5734
lclavicle 1.93815e-015 -5.36719e-015
lhumerus -84.3124 -21.3148 108.678
lradius 105.191
lwrist 15.0311
lhand -14.2949 -24.3197
lfingers 7.12502
lthumb 11.8448 5.32534
rfemur -9.54892 -2.40588 18.0561
rtibia 8.2613
rfoot -16.0765 -9.6926
rtoes -7.71554
lfemur -23.0776 3.19803 -9.90457
ltibia 30.805
lfoot -20.3702 5.98727
ltoes -57.1433
611
root -0.472934 18.7131 6.24311 13.9151 -0.261593 -4.09056
lowerback 9.8488 -0.97719 2.22527
upperback -1.17179 -0.889647 2.12607
thorax -6.7697 -0.476551 1.11983
lowerneck -4.20442 -5.32041 -2.56716
upperneck 10.0027 -7.12621 1.83005
head 4.21136 -3.52873 0.701063
rclavicle 2.26987e-014 -1.80894e-014
rhumerus -84.5664 13.0308 -95.4904
rradius 107.079
rwrist 2.67085
rhand 3.08804 -24.5258
rfingers 7.12502
rthumb 28.5447 -52.3669
lclavicle 2.26987e-014 -1.80894e-014
lhumerus -84.3185 -21.3939 108.865
lradius 104.745
lwrist 15.7877
lhand -14.1229 -25.8509
lfingers 7.12502
lthumb 12.0106 3.7845
rfemur -8.9377 -2.78263 17.5736
rtibia 7.24445
rfoot -16.129 -9.81042
rtoes -7.43246
lfemur -23.2621 3.20337 -10.4542
ltibia 31.0082
lfoot -20.1043 5.54974
ltoes -57.1367
612
root -0.489589 18.7044 6.23077 13.8902 -0.0377818 -3.51648
lowerback 9.89805 -1.08597 2.80804
upperback -1.05121 -0.945718 2.41977
thorax -6.676 -0.518865 1.10884
lowerneck -4.07111 -4.82493 -1.70176
upperneck 9.52068 -6.2226 -1.25483
head 3.82962 -3.18774 -0.402729
rclavicle -1.89839e-014 1.64991e-014
rhumerus -84.3782 13.3504 -95.061
rradius 107.391
rwrist 2.31218
rhand 3.15109 -24.5704
rfingers 7.12502
rthumb 28.6049 -52.4014
lclavicle -1.89839e-014 1.64991e-014
lhumerus -84.1592 -21.5246 108.99
lradius 104.674
lwrist 15.7981
lhand -13.6666 -25.611
lfingers 7.12502
lthumb 12.4506 3.99819
rfemur -8.20011 -3.18335 17.0875
rtibia 5.90472
rfoot -16.0475 -10.0082
rtoes -7.45568
lfemur -23.4826 3.18097 -10.9902
ltibia 31.2251
lfoot -19.8476 5.11702
ltoes -57.1478
613
root -0.50908 18.6985 6.21799 13.8954 0.19705 -2.95834
lowerback 10.0023 -1.14717 3.52461
upperback -0.97332 -0.920609 2.6668
thorax -6.66237 -0.52711 0.963612
lowerneck -4.03747 -4.40929 -1.02824
upperneck 9.11883 -5.45319 -4.23679
head 3.57067 -2.90726 -1.44813
rclavicle 2.0773e-014 -2.38542e-014
rhumerus -84.2523 13.1302 -94.8484
rradius 107.602
rwrist 2.27545
rhand 3.14816 -24.5087
rfingers 7.12502
rthumb 28.6021 -52.3402
lclavicle 2.0773e-014 -2.38542e-014
lhumerus -84.1222 -21.8125 109.057
lradius 104.931
lwrist 15.1809
lhand -13.1329 -24.1808
lfingers 7.12502
lthumb 12.9651 5.39637
rfemur -7.37581 -3.59252 16.6088
rtibia 4.33273
rfoot -15.8918 -10.2167
rtoes -7.40913
lfemur -23.7417 3.25577 -11.511
ltibia 31.4318
lfoot -19.5309 4.67316
ltoes -57.3252
614
root -0.532033 18.6978 6.2017 13.9834 0.428935 -2.28957
lowerback 10.1476 -1.2178 4.15771
upperback -0.976406 -0.91645 2.82585
thorax -6.75835 -0.545587 0.779406
lowerneck -3.97931 -4.03558 -0.560148
upperneck 8.72005 -4.77192 -7.00027
head 3.36582 -2.65946 -2.40811
rclavicle 2.26615e-014 -2.70347e-014
rhumerus -84.1772 12.9227 -94.8239
rradius 107.685
rwrist 2.2074
rhand 3.06814 -24.4207
rfingers 7.12502
rthumb 28.5257 -52.265
lclavicle 2.26615e-014 -2.70347e-014
lhumerus -84.3063 -22.0931 109.201
lradius 104.72
lwrist 15.6456
lhand -13.2321 -25.2817
lfingers 7.12502
lthumb 12.8694 4.30154
rfemur -6.53527 -4.03299 16.013
rtibia 2.51764
rfoot -15.4783 -10.5852
rtoes -7.96295
lfemur -24.1086 3.44606 -12.1613
ltibia 31.6177
lfoot -18.9768 4.22655
ltoes -57.4882
615
root -0.556536 18.7038 6.18238 14.1726 0.664059 -1.5384
lowerback 10.1788 -1.2965 4.62688
upperback -0.982871 -0.952385 2.9368
thorax -6.79166 -0.578351 0.640571
lowerneck -3.89922 -3.67966 -0.338522
upperneck 8.27851 -4.15811 -9.32758
head 3.18507 -2.4255 -3.20463
rclavicle -9.34288e-015 -2.94201e-014
rhumerus -84.0894 12.8322 -94.8823
rradius 107.673
rwrist 2.22354
rhand 3.07977 -24.2917
rfingers 7.12502
rthumb 28.5368 -52.1342
lclavicle -9.34288e-015 -2.94201e-014
lhumerus -84.4125 -22.3004 109.201
lradius 104.741
lwrist 15.7756
lhand -13.1397 -25.3751
lfingers 7.12502
lthumb 12.9585 4.20245
rfemur -5.46968 -4.51324 15.2952
rtibia 7.95139e-015
rfoot -14.6003 -11.2868
rtoes -8.86568
lfemur -24.5897 3.65105 -12.8951
ltibia 31.7713
lfoot -18.1753 3.75969
ltoes -57.4923
616
root -0.580916 18.716 6.16415 14.4371 0.912206 -0.87881
lowerback 10.066 -1.36501 5.10706
upperback -0.975563 -0.986977 3.01517
thorax -6.72952 -0.61021 0.457332
lowerneck -3.85477 -3.36724 -0.318649
upperneck 7.87187 -3.64433 -11.094
head 3.04754 -2.2205 -3.79745
rclavicle 7.55382e-015 -3.26007e-014
rhumerus -83.891 12.7851 -94.9706
rradius 107.539
rwrist 2.27254
rhand 3.24031 -24.1418
rfingers 7.12502
rthumb 28.6902 -51.9584
lclavicle 7.55382e-015 -3.26007e-014
lhumerus -84.5092 -22.5392 109.148
lradius 104.769
lwrist 15.9424
lhand -13.0447 -25.5091
lfingers 7.12502
lthumb 13.0501 4.0627
rfemur -5.73797 -4.98179 14.758
rtibia -3.18055e-015
rfoot -14.7017 -11.2497
rtoes -8.97471
lfemur -25.1291 3.94218 -13.5236
ltibia 31.8915
lfoot -17.3055 3.03044
ltoes -57.5417
617
root -0.605681 18.7317 6.14847 14.7133 1.16537 -0.352036
lowerback 9.89495 -1.44727 5.61279
upperback -0.978893 -1.04423 3.0652
thorax -6.6482 -0.654157 0.232569
lowerneck -3.80086 -3.03584 -0.372107
upperneck 7.7882 -3.08756 -12.7368
head 2.73459 -2.01983 -3.89573
rclavicle 5.56597e-015 2.06736e-014
rhumerus -83.6126 12.8041 -95.0893
rradius 107.291
rwrist 2.18684
rhand 3.55538 -24.2447
rfingers 7.12502
rthumb 28.9911 -52.01
lclavicle 5.56597e-015 2.06736e-014
lhumerus -84.6761 -22.7393 109.098
lradius 104.835
lwrist 16.1404
lhand -13.1014 -25.3402
lfingers 7.12502
lthumb 12.9955 4.235
rfemur -6.01174 -5.42487 14.3718
rtibia 3.18055e-015
rfoot -14.7238 -11.2507
rtoes -8.95588
lfemur -25.655 4.35541 -14.0163
ltibia 31.9893
lfoot -16.4215 2.08343
ltoes -57.683
